<?xml version="1.0" encoding="UTF-8"?>
<svg id="Layer_2" data-name="Layer 2" xmlns="http://www.w3.org/2000/svg" viewBox="0 0 129.316821362 94.9428219166">
  <defs>
    <style>
      .cls-1 {
        fill: none;
        stroke: #4d3378;
        stroke-miterlimit: 10;
        stroke-width: 2.8px;
      }

      .cls-2 {
        fill: #4d3378;
      }

      .cls-3 {
        fill: #4d3379;
        font-family: Lato-Black, Lato;
        font-size: 18px;
        font-weight: 800;
        letter-spacing: .0999891493em;
      }
    </style>
  </defs>
  <g id="new">
    <g>
      <g>
        <path class="cls-2" d="M39.2413688378,80.2677108741c12.3491678224.4416007056,22.9068006201-9.2536071701,24.8581164067-20.7281578633,1.9513157866-11.4745506932-3.8736230493-17.9243971305-14.7137733157-22.6506739281-10.8401502664-4.7262767976-15.275839828-3.8446368619-24.7906600572,3.7058565063-9.5148202291,7.5504933683-9.4027836585,12.8319072297-5.9414543488,22.952310452,3.4613293097,10.1204032222,12.4780022635,16.4306631272,20.5877713149,16.7206648331Z"/>
        <path class="cls-1" d="M47.5391252433,1.521506811c11.6634880828,1.7671951641,26.222169384,15.1110806619,28.8888306772,24.8888387373,2.6666612933,9.7777580754-.4444435489,36.4443710082-5.555544361,45.5554637603-5.1111008121,9.1110927521-12.8888629175,24.4443951884-28.8888306772,21.1110685718-12.2949869673-2.5614556182-36.4443710082-13.111084692-37.9999234293-28.8888306772-1.5555524211-15.7777459853-7.1110967821-41.1110282715,5.3333225866-49.1110121513C21.7613994082,7.077051172,40.2058066868.4103979388,47.5391252433,1.521506811Z"/>
      </g>
      <text class="cls-3" transform="translate(90.6906905551 54.2119392993)"><tspan x="0" y="0">123</tspan></text>
    </g>
  </g>
</svg>